<svg width="20" height="20" viewBox="0 0 20 20" fill="none" xmlns="http://www.w3.org/2000/svg">
<rect width="20" height="20" rx="3.63636" fill="#4EB9FC" fill-opacity="0.08"/>
<rect x="0.181818" y="0.181818" width="19.6364" height="19.6364" rx="3.45455" stroke="#4EB9FC" stroke-opacity="0.08" stroke-width="0.363636"/>
<path d="M9.09601 8.06743C8.40141 8.06743 7.65226 8.80635 7.65226 10.0004C7.65226 11.1944 8.40141 11.9333 9.09601 11.9333C9.91334 11.9333 10.5236 10.9439 10.9744 10.0021C10.5449 9.11573 9.90908 8.06829 9.09601 8.06829V8.06743Z" fill="#4EB9FC"/>
<path d="M15.4957 6.67397C15.3363 5.55664 14.444 4.66431 13.3258 4.50408C11.1184 4.18874 8.88038 4.18874 6.67299 4.50408C5.55566 4.66346 4.66333 5.55579 4.50311 6.67397C4.18777 8.88136 4.18777 11.1194 4.50311 13.3268C4.66248 14.445 5.55481 15.3365 6.67299 15.4967C7.77669 15.6544 8.88805 15.7336 9.99941 15.7336C11.1108 15.7336 12.2221 15.6552 13.3258 15.4967C14.4432 15.3373 15.3355 14.445 15.4957 13.3268C15.8111 11.1194 15.8111 8.88136 15.4957 6.67397ZM12.996 12.2649C13.0957 12.5291 12.9611 12.824 12.6969 12.9237C12.6381 12.9458 12.5767 12.9561 12.517 12.9561C12.3099 12.9561 12.1156 12.8291 12.0381 12.6245C11.8301 12.0714 11.6477 11.5975 11.4926 11.2064C10.9361 12.1464 10.1818 12.9561 9.09515 12.9561C8.45765 12.9561 7.82612 12.6458 7.36248 12.1055C6.88947 11.5532 6.62868 10.8058 6.62868 10.0012C6.62868 9.1967 6.88947 8.44925 7.36248 7.89613C7.82612 7.35579 8.45765 7.04556 9.09515 7.04556C10.1733 7.04556 10.9292 7.85692 11.4892 8.79783C11.6452 8.40664 11.8284 7.93192 12.0381 7.37624C12.1378 7.11204 12.4327 6.97823 12.6969 7.0788C12.9611 7.17937 13.094 7.4734 12.9943 7.73761C12.6023 8.77653 12.3074 9.52056 12.0986 10.0004C12.3108 10.4845 12.6057 11.2294 12.9943 12.2657L12.996 12.2649Z" fill="#4EB9FC"/>
</svg>
