<svg width="20" height="20" viewBox="0 0 20 20" fill="none" xmlns="http://www.w3.org/2000/svg">
<rect width="20" height="20" rx="3.63636" fill="#2352F6" fill-opacity="0.08"/>
<rect x="0.181818" y="0.181818" width="19.6364" height="19.6364" rx="3.45455" stroke="#2352F6" stroke-opacity="0.08" stroke-width="0.363636"/>
<path d="M10.3403 9.69699H10.1366C9.85452 9.69699 9.62526 9.46773 9.62526 9.18563C9.62526 8.90353 9.85452 8.67426 10.1366 8.67426H10.3403C10.8449 8.67426 11.2548 8.26432 11.2548 7.75978C11.2548 7.25523 10.8449 6.84529 10.3403 6.84529H10.1366C9.52043 6.84529 9.01844 7.34642 9.01844 7.96347V11.0189C9.01844 11.7476 9.61162 12.3407 10.3403 12.3407C11.069 12.3407 11.6622 11.7476 11.6622 11.0189C11.6622 10.2902 11.069 9.69699 10.3403 9.69699Z" fill="#2352F6"/>
<path d="M15.4957 6.67397C15.3363 5.55664 14.444 4.66431 13.3258 4.50408C11.1184 4.18874 8.88038 4.18874 6.67299 4.50408C5.55566 4.66346 4.66333 5.55579 4.50311 6.67397C4.18777 8.88136 4.18777 11.1194 4.50311 13.3268C4.66248 14.445 5.55481 15.3365 6.67299 15.4967C7.77669 15.6544 8.88805 15.7336 9.99941 15.7336C11.1108 15.7336 12.2221 15.6552 13.3258 15.4967C14.4432 15.3373 15.3355 14.445 15.4957 13.3268C15.8111 11.1194 15.8111 8.88136 15.4957 6.67397ZM10.3403 13.3635C9.85027 13.3635 9.39515 13.2126 9.01845 12.9544V13.6669C9.01845 13.949 8.78919 14.1782 8.50708 14.1782C8.22498 14.1782 7.99572 13.949 7.99572 13.6669V7.96431C7.99572 6.78391 8.95623 5.8234 10.1366 5.8234H10.3403C11.4082 5.8234 12.2775 6.69272 12.2775 7.76062C12.2775 8.29073 12.0636 8.77227 11.7167 9.12255C12.3031 9.54869 12.6849 10.2407 12.6849 11.0197C12.6849 12.3126 11.6332 13.3643 10.3403 13.3643V13.3635Z" fill="#2352F6"/>
</svg>
