<svg width="12" height="12" viewBox="0 0 12 12" fill="none" xmlns="http://www.w3.org/2000/svg">
<path fill-rule="evenodd" clip-rule="evenodd" d="M6 1.125C8.69239 1.125 10.875 3.30761 10.875 6C10.875 8.69239 8.69239 10.875 6 10.875C3.30761 10.875 1.125 8.69239 1.125 6C1.125 3.30761 3.30761 1.125 6 1.125ZM8.01514 4.48486C7.86869 4.33842 7.63131 4.33842 7.48486 4.48486L5.25 6.71973L4.51514 5.98486C4.36869 5.83842 4.13131 5.83842 3.98486 5.98486C3.83842 6.13131 3.83842 6.36869 3.98486 6.51514L4.98486 7.51514C5.13131 7.66158 5.36869 7.66158 5.51514 7.51514L8.01514 5.01514C8.16158 4.86869 8.16158 4.63131 8.01514 4.48486Z" fill="#8A6D5B"/>
</svg>
