<svg width="20" height="20" viewBox="0 0 20 20" fill="none" xmlns="http://www.w3.org/2000/svg">
<rect width="20" height="20" rx="3.63636" fill="#FF9B2F" fill-opacity="0.08"/>
<rect x="0.181818" y="0.181818" width="19.6364" height="19.6364" rx="3.45455" stroke="#FF9B2F" stroke-opacity="0.08" stroke-width="0.363636"/>
<path d="M6.36426 13.7588C6.36426 12.6909 7.22997 11.8252 8.29786 11.8252H10.2315V13.7588C10.2315 14.8267 9.36575 15.6924 8.29786 15.6924C7.22997 15.6924 6.36426 14.8267 6.36426 13.7588Z" fill="#24CB71"/>
<path d="M10.2314 4.09082V7.95803H12.165C13.2329 7.95803 14.0987 7.09231 14.0987 6.02442C14.0987 4.95653 13.2329 4.09082 12.165 4.09082H10.2314Z" fill="#FF7237"/>
<path d="M12.1494 11.8242C13.2173 11.8242 14.083 10.9585 14.083 9.89063C14.083 8.82274 13.2173 7.95703 12.1494 7.95703C11.0815 7.95703 10.2158 8.82274 10.2158 9.89063C10.2158 10.9585 11.0815 11.8242 12.1494 11.8242Z" fill="#00B6FF"/>
<path d="M6.36426 6.02442C6.36426 7.09231 7.22997 7.95803 8.29786 7.95803H10.2315V4.09082H8.29786C7.22997 4.09082 6.36426 4.95653 6.36426 6.02442Z" fill="#FF3737"/>
<path d="M6.36426 9.89063C6.36426 10.9585 7.22997 11.8242 8.29786 11.8242H10.2315V7.95703H8.29786C7.22997 7.95703 6.36426 8.82274 6.36426 9.89063Z" fill="#874FFF"/>
</svg>
