<svg width="20" height="20" viewBox="0 0 20 20" fill="none" xmlns="http://www.w3.org/2000/svg">
<rect width="20" height="20" rx="3.63636" fill="#41BCBC" fill-opacity="0.08"/>
<rect x="0.181818" y="0.181818" width="19.6364" height="19.6364" rx="3.45455" stroke="#41BCBC" stroke-opacity="0.08" stroke-width="0.363636"/>
<path d="M16.1815 6.70164C16.0187 5.563 15.1085 4.66897 13.9673 4.52579C11.3346 4.19681 8.66447 4.19681 6.0318 4.52579C4.89061 4.66812 3.98038 5.563 3.8176 6.70164C3.50481 8.89027 3.50481 11.1096 3.8176 13.2982C3.98038 14.4369 4.89061 15.3309 6.0318 15.4741C7.34856 15.6386 8.67384 15.7212 9.99913 15.7212C11.3244 15.7212 12.6506 15.6394 13.9665 15.4741C15.1077 15.3318 16.0179 14.4369 16.1807 13.2982C16.4934 11.1096 16.4934 8.89027 16.1807 6.70164H16.1815ZM7.97413 11.684C8.17356 11.8835 8.17356 12.2073 7.97413 12.4068C7.87441 12.5065 7.74316 12.5568 7.61276 12.5568C7.48237 12.5568 7.35112 12.5065 7.2514 12.4068L5.20595 10.3613C5.00652 10.1619 5.00652 9.838 5.20595 9.63857L7.2514 7.59312C7.45083 7.39368 7.7747 7.39368 7.97498 7.59312C8.17441 7.79255 8.17441 8.11641 7.97498 8.31584L6.29089 9.99993L7.97498 11.684H7.97413ZM11.1812 7.04255L9.81759 13.1789C9.76475 13.4175 9.55339 13.5795 9.31902 13.5795C9.28237 13.5795 9.24487 13.5752 9.20737 13.5675C8.93209 13.5062 8.75822 13.2335 8.81873 12.9573L10.1824 6.82096C10.2437 6.54567 10.5165 6.37181 10.7926 6.43232C11.0679 6.49368 11.2417 6.76641 11.1812 7.04255ZM14.794 10.3613L12.7486 12.4068C12.6488 12.5065 12.5176 12.5568 12.3872 12.5568C12.2568 12.5568 12.1255 12.5065 12.0258 12.4068C11.8264 12.2073 11.8264 11.8835 12.0258 11.684L13.7099 9.99993L12.0258 8.31584C11.8264 8.11641 11.8264 7.79255 12.0258 7.59312C12.2253 7.39368 12.5491 7.39368 12.7494 7.59312L14.7949 9.63857C14.9943 9.838 14.9943 10.1619 14.7949 10.3613H14.794Z" fill="#41BCBC"/>
</svg>
