<svg width="20" height="20" viewBox="0 0 20 20" fill="none" xmlns="http://www.w3.org/2000/svg">
<rect width="20" height="20" rx="3.63636" fill="#07BA70" fill-opacity="0.08"/>
<rect x="0.181818" y="0.181818" width="19.6364" height="19.6364" rx="3.45455" stroke="#07BA70" stroke-opacity="0.08" stroke-width="0.363636"/>
<path d="M15.4957 6.67299C15.3363 5.55481 14.444 4.66333 13.3258 4.50311C11.1184 4.18777 8.88038 4.18777 6.67299 4.50311C5.55566 4.66248 4.66333 5.55481 4.50311 6.67299C4.18777 8.88038 4.18777 11.1184 4.50311 13.3258C4.66248 14.4432 5.55481 15.3355 6.67299 15.4957C7.77669 15.6534 8.88805 15.7327 9.99941 15.7327C11.1108 15.7327 12.2221 15.6542 13.3258 15.4957C14.4432 15.3363 15.3355 14.444 15.4957 13.3258C15.8111 11.1184 15.8111 8.88038 15.4957 6.67299ZM12.5477 9.63038L11.7773 10.5858L11.8395 11.8122C11.848 11.9852 11.7687 12.1497 11.629 12.252C11.5403 12.3159 11.4346 12.35 11.3281 12.35C11.2667 12.35 11.2045 12.3389 11.1457 12.3167L9.99856 11.8787L8.8514 12.3167C8.69032 12.3781 8.50794 12.3542 8.36816 12.2528C8.22839 12.1514 8.14913 11.9861 8.15765 11.8131L8.21987 10.5866L7.44941 9.63123C7.34118 9.49657 7.30794 9.31674 7.36078 9.15225C7.41362 8.98777 7.54743 8.86163 7.71362 8.81646L8.89913 8.49686L9.56987 7.46816C9.66447 7.32328 9.82555 7.23635 9.99856 7.23635C10.1716 7.23635 10.3327 7.32328 10.4273 7.46816L11.098 8.49686L12.2835 8.81646C12.4506 8.86163 12.5835 8.98777 12.6363 9.15225C12.69 9.31674 12.6568 9.49657 12.5477 9.63123V9.63038Z" fill="#07BA70"/>
</svg>
