<svg width="20" height="20" viewBox="0 0 20 20" fill="none" xmlns="http://www.w3.org/2000/svg">
<rect width="20" height="20" rx="4" fill="#826DFF" fill-opacity="0.08"/>
<rect x="0.2" y="0.2" width="19.6" height="19.6" rx="3.8" stroke="#826DFF" stroke-opacity="0.08" stroke-width="0.4"/>
<path d="M12.0006 3.82676C11.8773 3.82676 11.7606 3.87176 11.6673 3.95509C11.5606 4.05093 11.5015 4.18343 11.5015 4.32676V6.66676C11.5015 7.12593 11.8756 7.50009 12.3348 7.50009H14.6148C14.7581 7.50009 14.8906 7.44176 14.9865 7.33509C15.079 7.23343 15.124 7.10259 15.1131 6.96676C15.0848 6.67843 15.054 6.39093 15.0181 6.10343C14.8806 5.00009 14.0165 4.11176 12.9181 3.94259L12.8898 3.93843C12.6098 3.89509 12.3281 3.85926 12.0473 3.82843C12.0315 3.82676 12.0165 3.82593 12.0006 3.82593V3.82676Z" fill="#826DFF"/>
<path d="M15.2281 8.59672C15.2231 8.49006 15.1198 8.41506 15.0173 8.44422C14.8873 8.48089 14.7515 8.50006 14.614 8.50006H12.334C11.3215 8.50006 10.5006 7.67922 10.5006 6.66672V4.32672C10.5006 4.19256 10.519 4.06006 10.554 3.93339C10.5823 3.82922 10.5056 3.72422 10.3981 3.72256C9.30064 3.69922 8.20147 3.77089 7.11147 3.93922L7.0848 3.94339C5.98147 4.11339 5.12314 4.99339 4.9848 6.10089C4.65897 8.70589 4.66147 11.3476 4.99147 13.9526C5.13064 15.0476 5.99064 15.9117 7.0848 16.0576L7.11147 16.0617C8.0698 16.2092 9.03564 16.2826 10.0006 16.2826C10.9656 16.2826 11.9306 16.2092 12.889 16.0617L12.9165 16.0576C14.0181 15.8901 14.8773 15.0109 15.0156 13.9051C15.2365 12.1451 15.3056 10.3684 15.2273 8.59756L15.2281 8.59672ZM11.334 13.5001H7.6673C7.39147 13.5001 7.1673 13.2759 7.1673 13.0001C7.1673 12.7242 7.39147 12.5001 7.6673 12.5001H11.334C11.6098 12.5001 11.834 12.7242 11.834 13.0001C11.834 13.2759 11.6098 13.5001 11.334 13.5001ZM12.334 11.1667H7.6673C7.39147 11.1667 7.1673 10.9426 7.1673 10.6667C7.1673 10.3909 7.39147 10.1667 7.6673 10.1667H12.334C12.6098 10.1667 12.834 10.3909 12.834 10.6667C12.834 10.9426 12.6098 11.1667 12.334 11.1667Z" fill="#826DFF"/>
</svg>
