<svg width="20" height="20" viewBox="0 0 20 20" fill="none" xmlns="http://www.w3.org/2000/svg">
<rect width="20" height="20" rx="4" fill="#FF2D9D" fill-opacity="0.08"/>
<rect x="0.2" y="0.2" width="19.6" height="19.6" rx="3.8" stroke="#FF2D9D" stroke-opacity="0.08" stroke-width="0.4"/>
<path d="M5.33366 3.99984C4.71616 3.7715 4.22866 3.284 4.00033 2.6665C3.77199 3.284 3.28449 3.7715 2.66699 3.99984C3.28449 4.22817 3.77199 4.71567 4.00033 5.33317C4.22866 4.71567 4.71616 4.22817 5.33366 3.99984Z" fill="#FF2D9D"/>
<path d="M15.3745 6.74737C15.2187 5.65403 14.3462 4.78237 13.2528 4.6257C11.0945 4.31737 8.90617 4.31737 6.74783 4.6257C5.65533 4.78153 4.78283 5.65403 4.62617 6.74737C4.31783 8.9057 4.31783 11.094 4.62617 13.2524C4.782 14.3449 5.6545 15.2174 6.74783 15.374C7.827 15.5282 8.91367 15.6057 10.0003 15.6057C11.087 15.6057 12.1737 15.529 13.2528 15.374C13.6262 15.3207 13.9728 15.1824 14.2745 14.9815L12.9803 13.6874C12.8495 13.5565 12.8087 13.3724 12.8528 13.2057L12.2903 12.644C11.6762 13.1765 10.8753 13.5007 10.0003 13.5007C8.07033 13.5007 6.50033 11.9307 6.50033 10.0007C6.50033 8.0707 8.07033 6.5007 10.0003 6.5007C11.9303 6.5007 13.5003 8.0707 13.5003 10.0007C13.5003 10.8757 13.177 11.6765 12.6437 12.2907L13.2053 12.8524C13.372 12.8082 13.5562 12.8499 13.687 12.9799L14.9812 14.274C15.182 13.9724 15.3203 13.6257 15.3737 13.2524C15.682 11.094 15.682 8.9057 15.3737 6.74737H15.3745Z" fill="#FF2D9D"/>
<path d="M10.0003 7.49984C8.62199 7.49984 7.50033 8.6215 7.50033 9.99984C7.50033 11.3782 8.62199 12.4998 10.0003 12.4998C11.3787 12.4998 12.5003 11.3782 12.5003 9.99984C12.5003 8.6215 11.3787 7.49984 10.0003 7.49984Z" fill="#FF2D9D"/>
</svg>
