<svg width="1408" height="351" viewBox="0 0 1408 351" fill="none" xmlns="http://www.w3.org/2000/svg" xmlns:xlink="http://www.w3.org/1999/xlink">
<rect width="1408" height="351" fill="white"/>
<rect width="1408" height="351" fill="url(#paint0_radial_635_16923)"/>
<rect width="1408" height="351" fill="url(#pattern0_635_16923)"/>
<path d="M49 116C49 117.657 47.6569 119 46 119H43C41.3431 119 40 117.657 40 116V113C40 111.343 41.3431 110 43 110H46C47.6569 110 49 111.343 49 113V116ZM59 116C59 117.657 57.6569 119 56 119H53C51.3431 119 50 117.657 50 116V113C50 111.343 51.3431 110 53 110H56C57.6569 110 59 111.343 59 113V116ZM69 116C69 117.657 67.6569 119 66 119H63C61.3431 119 60 117.657 60 116V113C60 111.343 61.3431 110 63 110H66C67.6569 110 69 111.343 69 113V116ZM109 116C109 117.657 107.657 119 106 119H103C101.343 119 100 117.657 100 116V113C100 111.343 101.343 110 103 110H106C107.657 110 109 111.343 109 113V116ZM119 116C119 117.657 117.657 119 116 119H113C111.343 119 110 117.657 110 116V113C110 111.343 111.343 110 113 110H116C117.657 110 119 111.343 119 113V116ZM129 116C129 117.657 127.657 119 126 119H123C121.343 119 120 117.657 120 116V113C120 111.343 121.343 110 123 110H126C127.657 110 129 111.343 129 113V116ZM159 116C159 117.657 157.657 119 156 119H153C151.343 119 150 117.657 150 116V113C150 111.343 151.343 110 153 110H156C157.657 110 159 111.343 159 113V116ZM199 116C199 117.657 197.657 119 196 119H193C191.343 119 190 117.657 190 116V113C190 111.343 191.343 110 193 110H196C197.657 110 199 111.343 199 113V116ZM219 116C219 117.657 217.657 119 216 119H213C211.343 119 210 117.657 210 116V113C210 111.343 211.343 110 213 110H216C217.657 110 219 111.343 219 113V116ZM259 116C259 117.657 257.657 119 256 119H253C251.343 119 250 117.657 250 116V113C250 111.343 251.343 110 253 110H256C257.657 110 259 111.343 259 113V116ZM279 116C279 117.657 277.657 119 276 119H273C271.343 119 270 117.657 270 116V113C270 111.343 271.343 110 273 110H276C277.657 110 279 111.343 279 113V116ZM319 116C319 117.657 317.657 119 316 119H313C311.343 119 310 117.657 310 116V113C310 111.343 311.343 110 313 110H316C317.657 110 319 111.343 319 113V116ZM339 116C339 117.657 337.657 119 336 119H333C331.343 119 330 117.657 330 116V113C330 111.343 331.343 110 333 110H336C337.657 110 339 111.343 339 113V116ZM379 116C379 117.657 377.657 119 376 119H373C371.343 119 370 117.657 370 116V113C370 111.343 371.343 110 373 110H376C377.657 110 379 111.343 379 113V116ZM416 110C417.657 110 419 111.343 419 113V116C419 117.657 417.657 119 416 119H413C411.343 119 410 117.657 410 116V113C410 111.343 411.343 110 413 110H416ZM39 106C39 107.657 37.6569 109 36 109H33C31.3431 109 30 107.657 30 106V103C30 101.343 31.3431 100 33 100H36C37.6569 100 39 101.343 39 103V106ZM79 106C79 107.657 77.6569 109 76 109H73C71.3431 109 70 107.657 70 106V103C70 101.343 71.3431 100 73 100H76C77.6569 100 79 101.343 79 103V106ZM99 106C99 107.657 97.6569 109 96 109H93C91.3431 109 90 107.657 90 106V103C90 101.343 91.3431 100 93 100H96C97.6569 100 99 101.343 99 103V106ZM139 106C139 107.657 137.657 109 136 109H133C131.343 109 130 107.657 130 106V103C130 101.343 131.343 100 133 100H136C137.657 100 139 101.343 139 103V106ZM159 106C159 107.657 157.657 109 156 109H153C151.343 109 150 107.657 150 106V103C150 101.343 151.343 100 153 100H156C157.657 100 159 101.343 159 103V106ZM199 106C199 107.657 197.657 109 196 109H193C191.343 109 190 107.657 190 106V103C190 101.343 191.343 100 193 100H196C197.657 100 199 101.343 199 103V106ZM219 106C219 107.657 217.657 109 216 109H213C211.343 109 210 107.657 210 106V103C210 101.343 211.343 100 213 100H216C217.657 100 219 101.343 219 103V106ZM259 106C259 107.657 257.657 109 256 109H253C251.343 109 250 107.657 250 106V103C250 101.343 251.343 100 253 100H256C257.657 100 259 101.343 259 103V106ZM279 106C279 107.657 277.657 109 276 109H273C271.343 109 270 107.657 270 106V103C270 101.343 271.343 100 273 100H276C277.657 100 279 101.343 279 103V106ZM319 106C319 107.657 317.657 109 316 109H313C311.343 109 310 107.657 310 106V103C310 101.343 311.343 100 313 100H316C317.657 100 319 101.343 319 103V106ZM339 106C339 107.657 337.657 109 336 109H333C331.343 109 330 107.657 330 106V103C330 101.343 331.343 100 333 100H336C337.657 100 339 101.343 339 103V106ZM379 106C379 107.657 377.657 109 376 109H373C371.343 109 370 107.657 370 106V103C370 101.343 371.343 100 373 100H376C377.657 100 379 101.343 379 103V106ZM419 106C419 107.657 417.657 109 416 109H413C411.343 109 410 107.657 410 106V103C410 101.343 411.343 100 413 100H416C417.657 100 419 101.343 419 103V106ZM79 96C79 97.6569 77.6569 99 76 99H73C71.3431 99 70 97.6569 70 96V93C70 91.3431 71.3431 90 73 90H76C77.6569 90 79 91.3431 79 93V96ZM99 96C99 97.6569 97.6569 99 96 99H93C91.3431 99 90 97.6569 90 96V93C90 91.3431 91.3431 90 93 90H96C97.6569 90 99 91.3431 99 93V96ZM139 96C139 97.6569 137.657 99 136 99H133C131.343 99 130 97.6569 130 96V93C130 91.3431 131.343 90 133 90H136C137.657 90 139 91.3431 139 93V96ZM159 96C159 97.6569 157.657 99 156 99H153C151.343 99 150 97.6569 150 96V93C150 91.3431 151.343 90 153 90H156C157.657 90 159 91.3431 159 93V96ZM199 96C199 97.6569 197.657 99 196 99H193C191.343 99 190 97.6569 190 96V93C190 91.3431 191.343 90 193 90H196C197.657 90 199 91.3431 199 93V96ZM219 96C219 97.6569 217.657 99 216 99H213C211.343 99 210 97.6569 210 96V93C210 91.3431 211.343 90 213 90H216C217.657 90 219 91.3431 219 93V96ZM259 96C259 97.6569 257.657 99 256 99H253C251.343 99 250 97.6569 250 96V93C250 91.3431 251.343 90 253 90H256C257.657 90 259 91.3431 259 93V96ZM279 96C279 97.6569 277.657 99 276 99H273C271.343 99 270 97.6569 270 96V93C270 91.3431 271.343 90 273 90H276C277.657 90 279 91.3431 279 93V96ZM319 96C319 97.6569 317.657 99 316 99H313C311.343 99 310 97.6569 310 96V93C310 91.3431 311.343 90 313 90H316C317.657 90 319 91.3431 319 93V96ZM339 96C339 97.6569 337.657 99 336 99H333C331.343 99 330 97.6569 330 96V93C330 91.3431 331.343 90 333 90H336C337.657 90 339 91.3431 339 93V96ZM379 96C379 97.6569 377.657 99 376 99H373C371.343 99 370 97.6569 370 96V93C370 91.3431 371.343 90 373 90H376C377.657 90 379 91.3431 379 93V96ZM419 96C419 97.6569 417.657 99 416 99H413C411.343 99 410 97.6569 410 96V93C410 91.3431 411.343 90 413 90H416C417.657 90 419 91.3431 419 93V96ZM49 86C49 87.6569 47.6569 89 46 89H43C41.3431 89 40 87.6569 40 86V83C40 81.3431 41.3431 80 43 80H46C47.6569 80 49 81.3431 49 83V86ZM59 86C59 87.6569 57.6569 89 56 89H53C51.3431 89 50 87.6569 50 86V83C50 81.3431 51.3431 80 53 80H56C57.6569 80 59 81.3431 59 83V86ZM69 86C69 87.6569 67.6569 89 66 89H63C61.3431 89 60 87.6569 60 86V83C60 81.3431 61.3431 80 63 80H66C67.6569 80 69 81.3431 69 83V86ZM99 86C99 87.6569 97.6569 89 96 89H93C91.3431 89 90 87.6569 90 86V83C90 81.3431 91.3431 80 93 80H96C97.6569 80 99 81.3431 99 83V86ZM139 86C139 87.6569 137.657 89 136 89H133C131.343 89 130 87.6569 130 86V83C130 81.3431 131.343 80 133 80H136C137.657 80 139 81.3431 139 83V86ZM159 86C159 87.6569 157.657 89 156 89H153C151.343 89 150 87.6569 150 86V83C150 81.3431 151.343 80 153 80H156C157.657 80 159 81.3431 159 83V86ZM179 86C179 87.6569 177.657 89 176 89H173C171.343 89 170 87.6569 170 86V83C170 81.3431 171.343 80 173 80H176C177.657 80 179 81.3431 179 83V86ZM199 86C199 87.6569 197.657 89 196 89H193C191.343 89 190 87.6569 190 86V83C190 81.3431 191.343 80 193 80H196C197.657 80 199 81.3431 199 83V86ZM219 86C219 87.6569 217.657 89 216 89H213C211.343 89 210 87.6569 210 86V83C210 81.3431 211.343 80 213 80H216C217.657 80 219 81.3431 219 83V86ZM239 86C239 87.6569 237.657 89 236 89H233C231.343 89 230 87.6569 230 86V83C230 81.3431 231.343 80 233 80H236C237.657 80 239 81.3431 239 83V86ZM259 86C259 87.6569 257.657 89 256 89H253C251.343 89 250 87.6569 250 86V83C250 81.3431 251.343 80 253 80H256C257.657 80 259 81.3431 259 83V86ZM279 86C279 87.6569 277.657 89 276 89H273C271.343 89 270 87.6569 270 86V83C270 81.3431 271.343 80 273 80H276C277.657 80 279 81.3431 279 83V86ZM289 86C289 87.6569 287.657 89 286 89H283C281.343 89 280 87.6569 280 86V83C280 81.3431 281.343 80 283 80H286C287.657 80 289 81.3431 289 83V86ZM299 86C299 87.6569 297.657 89 296 89H293C291.343 89 290 87.6569 290 86V83C290 81.3431 291.343 80 293 80H296C297.657 80 299 81.3431 299 83V86ZM309 86C309 87.6569 307.657 89 306 89H303C301.343 89 300 87.6569 300 86V83C300 81.3431 301.343 80 303 80H306C307.657 80 309 81.3431 309 83V86ZM319 86C319 87.6569 317.657 89 316 89H313C311.343 89 310 87.6569 310 86V83C310 81.3431 311.343 80 313 80H316C317.657 80 319 81.3431 319 83V86ZM339 86C339 87.6569 337.657 89 336 89H333C331.343 89 330 87.6569 330 86V83C330 81.3431 331.343 80 333 80H336C337.657 80 339 81.3431 339 83V86ZM349 86C349 87.6569 347.657 89 346 89H343C341.343 89 340 87.6569 340 86V83C340 81.3431 341.343 80 343 80H346C347.657 80 349 81.3431 349 83V86ZM359 86C359 87.6569 357.657 89 356 89H353C351.343 89 350 87.6569 350 86V83C350 81.3431 351.343 80 353 80H356C357.657 80 359 81.3431 359 83V86ZM369 86C369 87.6569 367.657 89 366 89H363C361.343 89 360 87.6569 360 86V83C360 81.3431 361.343 80 363 80H366C367.657 80 369 81.3431 369 83V86ZM419 86C419 87.6569 417.657 89 416 89H413C411.343 89 410 87.6569 410 86V83C410 81.3431 411.343 80 413 80H416C417.657 80 419 81.3431 419 83V86ZM39 76C39 77.6569 37.6569 79 36 79H33C31.3431 79 30 77.6569 30 76V73C30 71.3431 31.3431 70 33 70H36C37.6569 70 39 71.3431 39 73V76ZM99 76C99 77.6569 97.6569 79 96 79H93C91.3431 79 90 77.6569 90 76V73C90 71.3431 91.3431 70 93 70H96C97.6569 70 99 71.3431 99 73V76ZM139 76C139 77.6569 137.657 79 136 79H133C131.343 79 130 77.6569 130 76V73C130 71.3431 131.343 70 133 70H136C137.657 70 139 71.3431 139 73V76ZM159 76C159 77.6569 157.657 79 156 79H153C151.343 79 150 77.6569 150 76V73C150 71.3431 151.343 70 153 70H156C157.657 70 159 71.3431 159 73V76ZM179 76C179 77.6569 177.657 79 176 79H173C171.343 79 170 77.6569 170 76V73C170 71.3431 171.343 70 173 70H176C177.657 70 179 71.3431 179 73V76ZM199 76C199 77.6569 197.657 79 196 79H193C191.343 79 190 77.6569 190 76V73C190 71.3431 191.343 70 193 70H196C197.657 70 199 71.3431 199 73V76ZM219 76C219 77.6569 217.657 79 216 79H213C211.343 79 210 77.6569 210 76V73C210 71.3431 211.343 70 213 70H216C217.657 70 219 71.3431 219 73V76ZM239 76C239 77.6569 237.657 79 236 79H233C231.343 79 230 77.6569 230 76V73C230 71.3431 231.343 70 233 70H236C237.657 70 239 71.3431 239 73V76ZM259 76C259 77.6569 257.657 79 256 79H253C251.343 79 250 77.6569 250 76V73C250 71.3431 251.343 70 253 70H256C257.657 70 259 71.3431 259 73V76ZM279 76C279 77.6569 277.657 79 276 79H273C271.343 79 270 77.6569 270 76V73C270 71.3431 271.343 70 273 70H276C277.657 70 279 71.3431 279 73V76ZM319 76C319 77.6569 317.657 79 316 79H313C311.343 79 310 77.6569 310 76V73C310 71.3431 311.343 70 313 70H316C317.657 70 319 71.3431 319 73V76ZM339 76C339 77.6569 337.657 79 336 79H333C331.343 79 330 77.6569 330 76V73C330 71.3431 331.343 70 333 70H336C337.657 70 339 71.3431 339 73V76ZM379 76C379 77.6569 377.657 79 376 79H373C371.343 79 370 77.6569 370 76V73C370 71.3431 371.343 70 373 70H376C377.657 70 379 71.3431 379 73V76ZM409 76C409 77.6569 407.657 79 406 79H403C401.343 79 400 77.6569 400 76V73C400 71.3431 401.343 70 403 70H406C407.657 70 409 71.3431 409 73V76ZM429 76C429 77.6569 427.657 79 426 79H423C421.343 79 420 77.6569 420 76V73C420 71.3431 421.343 70 423 70H426C427.657 70 429 71.3431 429 73V76ZM39 66C39 67.6569 37.6569 69 36 69H33C31.3431 69 30 67.6569 30 66V63C30 61.3431 31.3431 60 33 60H36C37.6569 60 39 61.3431 39 63V66ZM79 66C79 67.6569 77.6569 69 76 69H73C71.3431 69 70 67.6569 70 66V63C70 61.3431 71.3431 60 73 60H76C77.6569 60 79 61.3431 79 63V66ZM99 66C99 67.6569 97.6569 69 96 69H93C91.3431 69 90 67.6569 90 66V63C90 61.3431 91.3431 60 93 60H96C97.6569 60 99 61.3431 99 63V66ZM139 66C139 67.6569 137.657 69 136 69H133C131.343 69 130 67.6569 130 66V63C130 61.3431 131.343 60 133 60H136C137.657 60 139 61.3431 139 63V66ZM159 66C159 67.6569 157.657 69 156 69H153C151.343 69 150 67.6569 150 66V63C150 61.3431 151.343 60 153 60H156C157.657 60 159 61.3431 159 63V66ZM169 66C169 67.6569 167.657 69 166 69H163C161.343 69 160 67.6569 160 66V63C160 61.3431 161.343 60 163 60H166C167.657 60 169 61.3431 169 63V66ZM189 66C189 67.6569 187.657 69 186 69H183C181.343 69 180 67.6569 180 66V63C180 61.3431 181.343 60 183 60H186C187.657 60 189 61.3431 189 63V66ZM199 66C199 67.6569 197.657 69 196 69H193C191.343 69 190 67.6569 190 66V63C190 61.3431 191.343 60 193 60H196C197.657 60 199 61.3431 199 63V66ZM219 66C219 67.6569 217.657 69 216 69H213C211.343 69 210 67.6569 210 66V63C210 61.3431 211.343 60 213 60H216C217.657 60 219 61.3431 219 63V66ZM229 66C229 67.6569 227.657 69 226 69H223C221.343 69 220 67.6569 220 66V63C220 61.3431 221.343 60 223 60H226C227.657 60 229 61.3431 229 63V66ZM249 66C249 67.6569 247.657 69 246 69H243C241.343 69 240 67.6569 240 66V63C240 61.3431 241.343 60 243 60H246C247.657 60 249 61.3431 249 63V66ZM259 66C259 67.6569 257.657 69 256 69H253C251.343 69 250 67.6569 250 66V63C250 61.3431 251.343 60 253 60H256C257.657 60 259 61.3431 259 63V66ZM279 66C279 67.6569 277.657 69 276 69H273C271.343 69 270 67.6569 270 66V63C270 61.3431 271.343 60 273 60H276C277.657 60 279 61.3431 279 63V66ZM319 66C319 67.6569 317.657 69 316 69H313C311.343 69 310 67.6569 310 66V63C310 61.3431 311.343 60 313 60H316C317.657 60 319 61.3431 319 63V66ZM339 66C339 67.6569 337.657 69 336 69H333C331.343 69 330 67.6569 330 66V63C330 61.3431 331.343 60 333 60H336C337.657 60 339 61.3431 339 63V66ZM379 66C379 67.6569 377.657 69 376 69H373C371.343 69 370 67.6569 370 66V63C370 61.3431 371.343 60 373 60H376C377.657 60 379 61.3431 379 63V66ZM399 66C399 67.6569 397.657 69 396 69H393C391.343 69 390 67.6569 390 66V63C390 61.3431 391.343 60 393 60H396C397.657 60 399 61.3431 399 63V66ZM439 66C439 67.6569 437.657 69 436 69H433C431.343 69 430 67.6569 430 66V63C430 61.3431 431.343 60 433 60H436C437.657 60 439 61.3431 439 63V66ZM49 56C49 57.6569 47.6569 59 46 59H43C41.3431 59 40 57.6569 40 56V53C40 51.3431 41.3431 50 43 50H46C47.6569 50 49 51.3431 49 53V56ZM59 56C59 57.6569 57.6569 59 56 59H53C51.3431 59 50 57.6569 50 56V53C50 51.3431 51.3431 50 53 50H56C57.6569 50 59 51.3431 59 53V56ZM69 56C69 57.6569 67.6569 59 66 59H63C61.3431 59 60 57.6569 60 56V53C60 51.3431 61.3431 50 63 50H66C67.6569 50 69 51.3431 69 53V56ZM99 56C99 57.6569 97.6569 59 96 59H93C91.3431 59 90 57.6569 90 56V53C90 51.3431 91.3431 50 93 50H96C97.6569 50 99 51.3431 99 53V56ZM139 56C139 57.6569 137.657 59 136 59H133C131.343 59 130 57.6569 130 56V53C130 51.3431 131.343 50 133 50H136C137.657 50 139 51.3431 139 53V56ZM159 56C159 57.6569 157.657 59 156 59H153C151.343 59 150 57.6569 150 56V53C150 51.3431 151.343 50 153 50H156C157.657 50 159 51.3431 159 53V56ZM199 56C199 57.6569 197.657 59 196 59H193C191.343 59 190 57.6569 190 56V53C190 51.3431 191.343 50 193 50H196C197.657 50 199 51.3431 199 53V56ZM219 56C219 57.6569 217.657 59 216 59H213C211.343 59 210 57.6569 210 56V53C210 51.3431 211.343 50 213 50H216C217.657 50 219 51.3431 219 53V56ZM259 56C259 57.6569 257.657 59 256 59H253C251.343 59 250 57.6569 250 56V53C250 51.3431 251.343 50 253 50H256C257.657 50 259 51.3431 259 53V56ZM289 56C289 57.6569 287.657 59 286 59H283C281.343 59 280 57.6569 280 56V53C280 51.3431 281.343 50 283 50H286C287.657 50 289 51.3431 289 53V56ZM299 56C299 57.6569 297.657 59 296 59H293C291.343 59 290 57.6569 290 56V53C290 51.3431 291.343 50 293 50H296C297.657 50 299 51.3431 299 53V56ZM309 56C309 57.6569 307.657 59 306 59H303C301.343 59 300 57.6569 300 56V53C300 51.3431 301.343 50 303 50H306C307.657 50 309 51.3431 309 53V56ZM319 56C319 57.6569 317.657 59 316 59H313C311.343 59 310 57.6569 310 56V53C310 51.3431 311.343 50 313 50H316C317.657 50 319 51.3431 319 53V56ZM339 56C339 57.6569 337.657 59 336 59H333C331.343 59 330 57.6569 330 56V53C330 51.3431 331.343 50 333 50H336C337.657 50 339 51.3431 339 53V56ZM349 56C349 57.6569 347.657 59 346 59H343C341.343 59 340 57.6569 340 56V53C340 51.3431 341.343 50 343 50H346C347.657 50 349 51.3431 349 53V56ZM359 56C359 57.6569 357.657 59 356 59H353C351.343 59 350 57.6569 350 56V53C350 51.3431 351.343 50 353 50H356C357.657 50 359 51.3431 359 53V56ZM369 56C369 57.6569 367.657 59 366 59H363C361.343 59 360 57.6569 360 56V53C360 51.3431 361.343 50 363 50H366C367.657 50 369 51.3431 369 53V56ZM399 56C399 57.6569 397.657 59 396 59H393C391.343 59 390 57.6569 390 56V53C390 51.3431 391.343 50 393 50H396C397.657 50 399 51.3431 399 53V56ZM439 56C439 57.6569 437.657 59 436 59H433C431.343 59 430 57.6569 430 56V53C430 51.3431 431.343 50 433 50H436C437.657 50 439 51.3431 439 53V56Z" fill="url(#paint1_linear_635_16923)"/>
<path d="M336 50H333C331.343 50 330 51.3431 330 53V56C330 57.6569 331.343 59 333 59H336C337.657 59 339 57.6569 339 56V53C339 51.3431 337.657 50 336 50Z" fill="#FF9A47"/>
<path d="M96 50H93C91.3431 50 90 51.3431 90 53V56C90 57.6569 91.3431 59 93 59H96C97.6569 59 99 57.6569 99 56V53C99 51.3431 97.6569 50 96 50Z" fill="#FF9A47"/>
<path d="M216 50H213C211.343 50 210 51.3431 210 53V56C210 57.6569 211.343 59 213 59H216C217.657 59 219 57.6569 219 56V53C219 51.3431 217.657 50 216 50Z" fill="#FF9A47"/>
<defs>
<radialGradient id="paint0_radial_635_16923" cx="0" cy="0" r="1" gradientUnits="userSpaceOnUse" gradientTransform="translate(7.3383 57.2526) scale(1514.08 241.372)">
<stop stop-color="#EDE4E0" stop-opacity="0.4"/>
<stop offset="1" stop-color="white"/>
</radialGradient>
<linearGradient id="paint1_linear_635_16923" x1="22.5" y1="46.8349" x2="466.976" y2="172.164" gradientUnits="userSpaceOnUse">
<stop stop-color="#322C28"/>
<stop offset="0.103643" stop-color="#322C28"/>
<stop offset="0.229164" stop-color="#765941"/>
<stop offset="0.33352" stop-color="#322C28"/>
<stop offset="0.699808" stop-color="#322C28"/>
<stop offset="0.793276" stop-color="#765941"/>
<stop offset="0.87561" stop-color="#322C28"/>
<stop offset="1" stop-color="#322C28"/>
</linearGradient>
<pattern id="pattern0_635_16923" patternUnits="userSpaceOnUse" patternTransform="matrix(9.999 0 0 9.999 0 0)" preserveAspectRatio="none" viewBox="0 0 9.999 9.999" width="1" height="1">
<g id="pattern0_635_16923_inner">
<rect width="9" height="9" rx="3" fill="white"/>
</g>
</pattern>
</defs>
</svg>
