<svg width="24" height="24" viewBox="0 0 24 24" fill="none" xmlns="http://www.w3.org/2000/svg">
<path d="M0 12C0 5.37258 5.37258 0 12 0C18.6274 0 24 5.37258 24 12C24 18.6274 18.6274 24 12 24C5.37258 24 0 18.6274 0 12Z" fill="#FBF9F8"/>
<path d="M16.3333 11.5H12.5V7.66666C12.5 7.39082 12.2758 7.16666 12 7.16666C11.7242 7.16666 11.5 7.39082 11.5 7.66666V11.5H7.66666C7.39083 11.5 7.16666 11.7242 7.16666 12C7.16666 12.2758 7.39083 12.5 7.66666 12.5H11.5V16.3333C11.5 16.6092 11.7242 16.8333 12 16.8333C12.2758 16.8333 12.5 16.6092 12.5 16.3333V12.5H16.3333C16.6092 12.5 16.8333 12.2758 16.8333 12C16.8333 11.7242 16.6092 11.5 16.3333 11.5Z" fill="#3D1602"/>
</svg>
