<svg width="24" height="24" viewBox="0 0 24 24" fill="none" xmlns="http://www.w3.org/2000/svg">
<path d="M0 12C0 5.37258 5.37258 0 12 0V0C18.6274 0 24 5.37258 24 12V12C24 18.6274 18.6274 24 12 24V24C5.37258 24 0 18.6274 0 12V12Z" fill="#FBF9F8"/>
<path d="M12.3132 7.64647C12.5084 7.45122 12.8249 7.45122 13.0202 7.64647L16.0777 10.7039C16.7938 11.42 16.7938 12.5808 16.0777 13.2969L13.0202 16.3544C12.8249 16.5496 12.5084 16.5496 12.3132 16.3544C12.1179 16.1591 12.1179 15.8425 12.3132 15.6473L15.3706 12.5898C15.3991 12.5613 15.4249 12.5313 15.4484 12.5H8C7.72386 12.5 7.5 12.2761 7.5 12C7.5 11.7238 7.72386 11.5 8 11.5H15.4477C15.4244 11.469 15.3988 11.4392 15.3706 11.411L12.3132 8.35351C12.1179 8.15824 12.1179 7.84174 12.3132 7.64647Z" fill="#1D2539"/>
</svg>
