<svg width="24" height="24" viewBox="0 0 24 24" fill="none" xmlns="http://www.w3.org/2000/svg">
<path d="M0 12C0 5.37258 5.37258 0 12 0V0C18.6274 0 24 5.37258 24 12V12C24 18.6274 18.6274 24 12 24V24C5.37258 24 0 18.6274 0 12V12Z" fill="#FBF9F8"/>
<path d="M14.125 6.16667C14.4011 6.16667 14.625 6.39053 14.625 6.66667V8.66667C14.625 8.94281 14.4011 9.16667 14.125 9.16667C13.8489 9.16667 13.625 8.94281 13.625 8.66667V8.11744C12.5424 8.05953 11.4575 8.05935 10.375 8.11727V7.11597C11.4575 7.0599 12.5423 7.06006 13.625 7.11613V6.66667C13.625 6.39053 13.8489 6.16668 14.125 6.16667Z" fill="#3D1602"/>
<path fill-rule="evenodd" clip-rule="evenodd" d="M5.94417 15.2502C6.11401 16.3552 6.99627 17.2126 8.10465 17.3511C10.6917 17.6746 13.3097 17.6745 15.8975 17.351C17.0054 17.2115 17.8877 16.3545 18.0575 15.2502C18.337 13.436 18.3534 11.583 18.108 9.76392C18.0903 9.63098 18.0716 9.49809 18.0499 9.36573C17.8609 8.28634 16.9888 7.45376 15.8983 7.31641C15.8961 7.31614 15.8939 7.31608 15.8918 7.31584C15.8029 7.30474 15.7139 7.29403 15.625 7.2837V8.29061C15.6753 8.29666 15.7257 8.30315 15.7761 8.30892C16.4298 8.39249 16.9517 8.89203 17.0649 9.53842C17.0846 9.65776 17.101 9.77781 17.1169 9.89771C17.1833 10.3899 16.7951 10.8341 16.29 10.8342H7.71166C7.20658 10.8341 6.81837 10.3891 6.88476 9.8969C6.89945 9.78673 6.91479 9.67796 6.93155 9.57015L6.93172 9.56926C7.03362 8.90607 7.56301 8.39172 8.22786 8.3086C8.27689 8.30247 8.32594 8.2965 8.37499 8.29061V8.66667C8.37499 8.94281 8.59886 9.16667 8.875 9.16667C9.15114 9.16667 9.375 8.94281 9.375 8.66667V6.66667C9.375 6.39053 9.15114 6.16667 8.875 6.16667C8.59886 6.16668 8.37499 6.39053 8.37499 6.66667V7.2837C8.28455 7.2942 8.19412 7.30503 8.10375 7.31633C6.99561 7.45488 6.1135 8.31196 5.94344 9.41667C5.92527 9.53347 5.9089 9.64946 5.89363 9.76392C5.64773 11.5864 5.67329 13.4324 5.94417 15.2502ZM7.71166 11.8342C7.353 11.8341 7.0194 11.7314 6.7377 11.5548C6.68691 12.7378 6.75177 13.9245 6.93253 15.0979C7.03442 15.7612 7.5638 16.2756 8.22867 16.3588C10.655 16.6622 13.1092 16.6717 15.538 16.3873L15.773 16.3588C16.4382 16.2748 16.9674 15.7602 17.0692 15.0981C17.2499 13.9247 17.3146 12.7378 17.2638 11.5549C16.9822 11.7314 16.6486 11.8341 16.29 11.8342H7.71166Z" fill="#3D1602"/>
</svg>
