<svg width="24" height="24" viewBox="0 0 24 24" fill="none" xmlns="http://www.w3.org/2000/svg">
<path d="M15.7483 11.0013H18.9983C19.412 11.0013 19.7483 10.665 19.7483 10.2512C19.7483 9.8375 19.412 9.50125 18.9983 9.50125H15.7483C15.6883 9.50125 15.6308 9.495 15.5733 9.4875L20.2795 4.78125C20.572 4.48875 20.572 4.01375 20.2795 3.72C20.1333 3.57375 19.9408 3.5 19.7495 3.5C19.5583 3.5 19.3658 3.57375 19.2195 3.72L14.5133 8.42625C14.5045 8.36875 14.4995 8.31 14.4995 8.25125L14.4995 5.00125C14.4995 4.5875 14.1633 4.25125 13.7495 4.25125C13.3358 4.25125 12.9995 4.5875 12.9995 5.00125L12.9995 8.25125C12.9995 9.7675 14.2333 11.0013 15.7495 11.0013H15.7483Z" fill="#475067"/>
<path d="M4.78062 20.2819L9.48688 15.5756C9.49438 15.6331 9.50063 15.6919 9.50063 15.7506L9.50062 19.0006C9.50062 19.4144 9.83687 19.7506 10.2506 19.7506C10.6644 19.7506 11.0006 19.4144 11.0006 19.0006L11.0006 15.7506C11.0006 14.2344 9.76688 13.0006 8.25063 13.0006L5.00063 13.0006C4.58688 13.0006 4.25063 13.3369 4.25063 13.7506C4.25063 14.1644 4.58688 14.5006 5.00063 14.5006L8.25063 14.5006C8.31063 14.5006 8.36813 14.5069 8.42563 14.5144L3.71937 19.2206C3.42687 19.5131 3.42687 19.9881 3.71937 20.2819C4.01187 20.5744 4.48687 20.5744 4.78062 20.2819Z" fill="#475067"/>
</svg>
