<svg width="24" height="24" viewBox="0 0 24 24" fill="none" xmlns="http://www.w3.org/2000/svg">
<path d="M0 12C0 5.37258 5.37258 0 12 0V0C18.6274 0 24 5.37258 24 12V12C24 18.6274 18.6274 24 12 24V24C5.37258 24 0 18.6274 0 12V12Z" fill="#FBF9F8"/>
<path d="M12.0001 15.1668C11.8717 15.1668 11.7442 15.1176 11.6467 15.0201L7.64674 11.0201C7.45174 10.8251 7.45174 10.5084 7.64674 10.3126C7.84174 10.1176 8.1584 10.1176 8.35424 10.3126L12.0009 13.9593L15.6476 10.3126C15.8426 10.1176 16.1592 10.1176 16.3551 10.3126C16.5501 10.5076 16.5501 10.8243 16.3551 11.0201L12.3551 15.0201C12.2576 15.1176 12.1292 15.1668 12.0017 15.1668H12.0001Z" fill="#3D1602"/>
</svg>
