<svg width="24" height="24" viewBox="0 0 24 24" fill="none" xmlns="http://www.w3.org/2000/svg">
<path d="M17.7501 3.5H14.5001C14.0864 3.5 13.7501 3.83625 13.7501 4.25C13.7501 4.66375 14.0864 5 14.5001 5H17.7501C17.8101 5 17.8676 5.00625 17.9251 5.01375L13.2189 9.72C12.9264 10.0125 12.9264 10.4875 13.2189 10.7812C13.3651 10.9275 13.5576 11.0013 13.7489 11.0013C13.9401 11.0013 14.1326 10.9275 14.2789 10.7812L18.9851 6.075C18.9939 6.1325 18.9989 6.19125 18.9989 6.25V9.5C18.9989 9.91375 19.3351 10.25 19.7489 10.25C20.1626 10.25 20.4989 9.91375 20.4989 9.5V6.25C20.4989 4.73375 19.2651 3.5 17.7489 3.5H17.7501Z" fill="#475067"/>
<path d="M9.72 13.22L5.01375 17.9262C5.00625 17.8687 5 17.81 5 17.7512V14.5012C5 14.0875 4.66375 13.7512 4.25 13.7512C3.83625 13.7512 3.5 14.0875 3.5 14.5012V17.7512C3.5 19.2675 4.73375 20.5012 6.25 20.5012H9.5C9.91375 20.5012 10.25 20.165 10.25 19.7512C10.25 19.3375 9.91375 19.0012 9.5 19.0012H6.25C6.19 19.0012 6.1325 18.995 6.075 18.9875L10.7812 14.2812C11.0737 13.9887 11.0737 13.5137 10.7812 13.22C10.4888 12.9275 10.0138 12.9275 9.72 13.22Z" fill="#475067"/>
</svg>
