<svg width="18" height="18" viewBox="0 0 18 18" fill="none" xmlns="http://www.w3.org/2000/svg">
<path d="M14.0049 8.4375C13.6946 8.4375 13.4424 8.68969 13.4424 9C13.4424 9.94313 13.3637 10.8919 13.209 11.8219C13.0909 12.5334 12.533 13.0903 11.8215 13.2094C9.94836 13.5216 8.04992 13.5216 6.1768 13.2094C5.46523 13.0912 4.90836 12.5334 4.7893 11.8219C4.47711 9.94875 4.47711 8.05031 4.7893 6.17719C4.90742 5.46562 5.46523 4.90875 6.1768 4.78969C7.1068 4.635 8.05648 4.55625 8.99867 4.55625C9.30898 4.55625 9.56117 4.30406 9.56117 3.99375C9.56117 3.68344 9.30898 3.43125 8.99867 3.43125C7.99461 3.43125 6.98211 3.51469 5.99117 3.67969C4.80617 3.8775 3.87711 4.80656 3.6793 5.99156C3.34648 7.98656 3.34648 10.0106 3.6793 12.0056C3.87711 13.1906 4.80617 14.1197 5.99117 14.3175C6.98867 14.4834 7.99367 14.5669 8.99867 14.5669C10.0037 14.5669 11.0077 14.4834 12.0062 14.3175C13.1912 14.1197 14.1202 13.1906 14.318 12.0056C14.483 11.0147 14.5665 10.0031 14.5665 8.99813C14.5665 8.68781 14.3143 8.43563 14.004 8.43563L14.0049 8.4375Z" fill="#3D1602"/>
<path d="M13.8746 2.0625H10.8746C10.5643 2.0625 10.3121 2.31469 10.3121 2.625C10.3121 2.93531 10.5643 3.1875 10.8746 3.1875H13.8746C13.9196 3.1875 13.9627 3.19125 14.0059 3.19781L9.72617 7.4775C9.5068 7.69688 9.5068 8.05313 9.72617 8.27344C9.83586 8.38312 9.98023 8.43844 10.1237 8.43844C10.2671 8.43844 10.4115 8.38312 10.5212 8.27344L14.8009 3.99375C14.8074 4.03687 14.8112 4.08094 14.8112 4.125V7.125C14.8112 7.43531 15.0634 7.6875 15.3737 7.6875C15.684 7.6875 15.9362 7.43531 15.9362 7.125V4.125C15.9362 2.98781 15.0109 2.0625 13.8737 2.0625H13.8746Z" fill="#3D1602"/>
</svg>
