<svg width="36" height="36" viewBox="0 0 36 36" fill="none" xmlns="http://www.w3.org/2000/svg">
<path d="M0 18C0 8.05887 8.05887 0 18 0V0C27.9411 0 36 8.05887 36 18V18C36 27.9411 27.9411 36 18 36V36C8.05887 36 0 27.9411 0 18V18Z" fill="#FBF9F8"/>
<path d="M22.6611 10.7687C23.5783 10.8751 24.25 11.6658 24.25 12.5892V25.5L18 22.375L11.75 25.5V12.5892C11.75 11.6658 12.4217 10.8751 13.3389 10.7687C14.868 10.5912 16.4233 10.5 18 10.5C19.5767 10.5 21.132 10.5912 22.6611 10.7687Z" fill="#3D1602" stroke="#3D1602" stroke-width="1.5" stroke-linecap="round" stroke-linejoin="round"/>
</svg>
