<svg width="14" height="14" viewBox="0 0 14 14" fill="none" xmlns="http://www.w3.org/2000/svg">
<path d="M8.03528 13.1591C7.42934 13.1591 6.85767 12.9534 6.38226 12.5641C6.12121 12.3504 5.84851 12.1193 5.52403 11.8356C5.28559 11.6271 5.17767 11.3055 5.2433 10.9956C5.35121 10.4852 5.44746 9.97407 5.52913 9.47459C5.57507 9.19314 5.48611 8.91605 5.28413 8.7148C5.08288 8.51282 4.8058 8.42386 4.52434 8.4698C4.02486 8.55147 3.51371 8.64772 3.0033 8.75564C2.6934 8.82126 2.37111 8.71334 2.1633 8.47491C1.88111 8.15189 1.64996 7.87918 1.43559 7.61668C0.893818 6.95459 0.710069 6.10074 0.931736 5.27459C1.1534 4.44845 1.73892 3.80095 2.53882 3.49834C4.72048 2.67366 6.99403 2.06407 9.29673 1.68782C10.1411 1.55001 10.9716 1.81761 11.5768 2.42209C12.1813 3.02657 12.4497 3.85782 12.3111 4.7022C11.9349 7.00418 11.3253 9.27772 10.5006 11.4601C10.198 12.26 9.55049 12.8463 8.72434 13.0672C8.4983 13.1277 8.26642 13.1583 8.03601 13.1583L8.03528 13.1591Z" fill="#0F7EFF"/>
</svg>
